<mxfile host="Electron" modified="2024-02-10T21:24:05.131Z" agent="Mozilla/5.0 (Windows NT 10.0; Win64; x64) AppleWebKit/537.36 (KHTML, like Gecko) draw.io/23.0.2 Chrome/120.0.6099.109 Electron/28.1.0 Safari/537.36" etag="zxVOHOKx0G5Ec4tmveRK" version="23.0.2" type="device">
  <diagram name="Страница — 1" id="lwFxoNZVOsWcV77fsAZV">
    <mxGraphModel dx="698" dy="470" grid="1" gridSize="10" guides="1" tooltips="1" connect="1" arrows="1" fold="1" page="1" pageScale="1" pageWidth="827" pageHeight="1169" math="0" shadow="0">
      <root>
        <mxCell id="0" />
        <mxCell id="1" parent="0" />
        <mxCell id="IgeLQids6hlCfI4V9-Eq-91" value="" style="rounded=1;whiteSpace=wrap;html=1;fillColor=#f5f5f5;fontColor=#333333;strokeColor=#666666;" parent="1" vertex="1">
          <mxGeometry x="790" y="190" width="600" height="610" as="geometry" />
        </mxCell>
        <mxCell id="IgeLQids6hlCfI4V9-Eq-11" value="" style="rounded=1;whiteSpace=wrap;html=1;" parent="1" vertex="1">
          <mxGeometry x="820" y="221.53" width="330" height="170" as="geometry" />
        </mxCell>
        <mxCell id="IgeLQids6hlCfI4V9-Eq-12" value="&lt;b&gt;Форма восстановления пароля&lt;/b&gt;" style="text;html=1;strokeColor=none;fillColor=none;align=center;verticalAlign=middle;whiteSpace=wrap;rounded=0;" parent="1" vertex="1">
          <mxGeometry x="890" y="221.53" width="190" height="30" as="geometry" />
        </mxCell>
        <mxCell id="IgeLQids6hlCfI4V9-Eq-13" value="Электронная почта" style="text;html=1;strokeColor=none;fillColor=none;align=center;verticalAlign=middle;whiteSpace=wrap;rounded=0;" parent="1" vertex="1">
          <mxGeometry x="840" y="251.53" width="110" height="30" as="geometry" />
        </mxCell>
        <mxCell id="IgeLQids6hlCfI4V9-Eq-14" value="&lt;font color=&quot;#999999&quot;&gt;Email&lt;/font&gt;" style="rounded=0;whiteSpace=wrap;html=1;" parent="1" vertex="1">
          <mxGeometry x="840" y="281.53" width="290" height="30" as="geometry" />
        </mxCell>
        <mxCell id="IgeLQids6hlCfI4V9-Eq-17" value="Восстановить пароль" style="rounded=0;whiteSpace=wrap;html=1;fillColor=#dae8fc;strokeColor=#6c8ebf;" parent="1" vertex="1">
          <mxGeometry x="840" y="321.53" width="150" height="30" as="geometry" />
        </mxCell>
        <mxCell id="IgeLQids6hlCfI4V9-Eq-18" value="&lt;font color=&quot;#ff0000&quot;&gt;Сообщение об ошибке&lt;/font&gt;" style="text;html=1;strokeColor=none;fillColor=none;align=center;verticalAlign=middle;whiteSpace=wrap;rounded=0;" parent="1" vertex="1">
          <mxGeometry x="840" y="361.53" width="130" height="30" as="geometry" />
        </mxCell>
        <mxCell id="IgeLQids6hlCfI4V9-Eq-105" value="" style="ellipse;whiteSpace=wrap;html=1;" parent="1" vertex="1">
          <mxGeometry x="975" y="180" width="20" height="20" as="geometry" />
        </mxCell>
        <mxCell id="IgeLQids6hlCfI4V9-Eq-106" value="" style="endArrow=classic;html=1;rounded=1;exitX=0.5;exitY=1;exitDx=0;exitDy=0;curved=0;entryX=0.5;entryY=0;entryDx=0;entryDy=0;" parent="1" source="IgeLQids6hlCfI4V9-Eq-105" target="IgeLQids6hlCfI4V9-Eq-11" edge="1">
          <mxGeometry width="50" height="50" relative="1" as="geometry">
            <mxPoint x="995" y="790" as="sourcePoint" />
            <mxPoint x="995" y="770" as="targetPoint" />
          </mxGeometry>
        </mxCell>
        <mxCell id="RxkFwqlUEFjrGWZGB2T0-1" value="Валидация данных (на клиенте)" style="rounded=1;whiteSpace=wrap;html=1;fillColor=#fff2cc;strokeColor=#d6b656;" parent="1" vertex="1">
          <mxGeometry x="842" y="460" width="120" height="60" as="geometry" />
        </mxCell>
        <mxCell id="RxkFwqlUEFjrGWZGB2T0-2" value="" style="endArrow=classic;html=1;rounded=1;entryX=0.5;entryY=0;entryDx=0;entryDy=0;curved=0;exitX=0.25;exitY=1;exitDx=0;exitDy=0;" parent="1" source="IgeLQids6hlCfI4V9-Eq-11" target="RxkFwqlUEFjrGWZGB2T0-1" edge="1">
          <mxGeometry width="50" height="50" relative="1" as="geometry">
            <mxPoint x="1160" y="317" as="sourcePoint" />
            <mxPoint x="1380" y="317" as="targetPoint" />
          </mxGeometry>
        </mxCell>
        <mxCell id="RxkFwqlUEFjrGWZGB2T0-3" value="Нажали кнопку &quot;Восстановить пароль&quot;" style="edgeLabel;html=1;align=center;verticalAlign=middle;resizable=0;points=[];" parent="RxkFwqlUEFjrGWZGB2T0-2" vertex="1" connectable="0">
          <mxGeometry x="-0.0186" y="1" relative="1" as="geometry">
            <mxPoint y="-9" as="offset" />
          </mxGeometry>
        </mxCell>
        <mxCell id="RxkFwqlUEFjrGWZGB2T0-4" value="" style="rhombus;whiteSpace=wrap;html=1;" parent="1" vertex="1">
          <mxGeometry x="1052" y="486" width="30" height="10" as="geometry" />
        </mxCell>
        <mxCell id="RxkFwqlUEFjrGWZGB2T0-7" value="" style="endArrow=classic;html=1;rounded=1;entryX=0.75;entryY=1;entryDx=0;entryDy=0;curved=0;exitX=0.5;exitY=0;exitDx=0;exitDy=0;" parent="1" source="RxkFwqlUEFjrGWZGB2T0-4" target="IgeLQids6hlCfI4V9-Eq-11" edge="1">
          <mxGeometry width="50" height="50" relative="1" as="geometry">
            <mxPoint x="1395" y="322" as="sourcePoint" />
            <mxPoint x="1394.17" y="410.1700000000001" as="targetPoint" />
          </mxGeometry>
        </mxCell>
        <mxCell id="RxkFwqlUEFjrGWZGB2T0-8" value="" style="endArrow=classic;html=1;rounded=1;entryX=0;entryY=0.5;entryDx=0;entryDy=0;curved=0;exitX=1;exitY=0.5;exitDx=0;exitDy=0;" parent="1" source="RxkFwqlUEFjrGWZGB2T0-1" target="RxkFwqlUEFjrGWZGB2T0-4" edge="1">
          <mxGeometry width="50" height="50" relative="1" as="geometry">
            <mxPoint x="1077" y="496" as="sourcePoint" />
            <mxPoint x="1078" y="402" as="targetPoint" />
          </mxGeometry>
        </mxCell>
        <mxCell id="RxkFwqlUEFjrGWZGB2T0-9" value="[ошибка]" style="edgeLabel;html=1;align=center;verticalAlign=middle;resizable=0;points=[];" parent="RxkFwqlUEFjrGWZGB2T0-8" vertex="1" connectable="0">
          <mxGeometry x="-0.1364" y="3" relative="1" as="geometry">
            <mxPoint y="-7" as="offset" />
          </mxGeometry>
        </mxCell>
        <mxCell id="RxkFwqlUEFjrGWZGB2T0-10" value="Валидация данных (на сервере)" style="rounded=1;whiteSpace=wrap;html=1;fillColor=#fff2cc;strokeColor=#d6b656;" parent="1" vertex="1">
          <mxGeometry x="840" y="588" width="120" height="60" as="geometry" />
        </mxCell>
        <mxCell id="RxkFwqlUEFjrGWZGB2T0-11" value="" style="endArrow=classic;html=1;rounded=1;entryX=0.5;entryY=0;entryDx=0;entryDy=0;curved=0;" parent="1" target="RxkFwqlUEFjrGWZGB2T0-10" edge="1">
          <mxGeometry width="50" height="50" relative="1" as="geometry">
            <mxPoint x="900" y="520" as="sourcePoint" />
            <mxPoint x="1378" y="445" as="targetPoint" />
          </mxGeometry>
        </mxCell>
        <mxCell id="RxkFwqlUEFjrGWZGB2T0-12" value="[ok]" style="edgeLabel;html=1;align=center;verticalAlign=middle;resizable=0;points=[];" parent="RxkFwqlUEFjrGWZGB2T0-11" vertex="1" connectable="0">
          <mxGeometry x="-0.0186" y="1" relative="1" as="geometry">
            <mxPoint x="14" y="-9" as="offset" />
          </mxGeometry>
        </mxCell>
        <mxCell id="RxkFwqlUEFjrGWZGB2T0-13" value="" style="rhombus;whiteSpace=wrap;html=1;" parent="1" vertex="1">
          <mxGeometry x="1050" y="614" width="30" height="10" as="geometry" />
        </mxCell>
        <mxCell id="RxkFwqlUEFjrGWZGB2T0-14" value="" style="endArrow=classic;html=1;rounded=1;entryX=0.5;entryY=1;entryDx=0;entryDy=0;curved=0;exitX=0.5;exitY=0;exitDx=0;exitDy=0;" parent="1" source="RxkFwqlUEFjrGWZGB2T0-13" target="RxkFwqlUEFjrGWZGB2T0-4" edge="1">
          <mxGeometry width="50" height="50" relative="1" as="geometry">
            <mxPoint x="1393" y="450" as="sourcePoint" />
            <mxPoint x="1066" y="520" as="targetPoint" />
          </mxGeometry>
        </mxCell>
        <mxCell id="RxkFwqlUEFjrGWZGB2T0-15" value="" style="endArrow=classic;html=1;rounded=1;entryX=0;entryY=0.5;entryDx=0;entryDy=0;curved=0;exitX=1;exitY=0.5;exitDx=0;exitDy=0;" parent="1" source="RxkFwqlUEFjrGWZGB2T0-10" target="RxkFwqlUEFjrGWZGB2T0-13" edge="1">
          <mxGeometry width="50" height="50" relative="1" as="geometry">
            <mxPoint x="1075" y="624" as="sourcePoint" />
            <mxPoint x="1076" y="530" as="targetPoint" />
          </mxGeometry>
        </mxCell>
        <mxCell id="RxkFwqlUEFjrGWZGB2T0-16" value="[ошибка]" style="edgeLabel;html=1;align=center;verticalAlign=middle;resizable=0;points=[];" parent="RxkFwqlUEFjrGWZGB2T0-15" vertex="1" connectable="0">
          <mxGeometry x="-0.1364" y="3" relative="1" as="geometry">
            <mxPoint y="-7" as="offset" />
          </mxGeometry>
        </mxCell>
        <mxCell id="RxkFwqlUEFjrGWZGB2T0-33" value="Проверка наличия почты в системе" style="rounded=1;whiteSpace=wrap;html=1;fillColor=#fff2cc;strokeColor=#d6b656;" parent="1" vertex="1">
          <mxGeometry x="840" y="716" width="120" height="60" as="geometry" />
        </mxCell>
        <mxCell id="RxkFwqlUEFjrGWZGB2T0-34" value="" style="endArrow=classic;html=1;rounded=1;entryX=0.5;entryY=0;entryDx=0;entryDy=0;curved=0;exitX=0.5;exitY=1;exitDx=0;exitDy=0;" parent="1" source="RxkFwqlUEFjrGWZGB2T0-10" target="RxkFwqlUEFjrGWZGB2T0-33" edge="1">
          <mxGeometry width="50" height="50" relative="1" as="geometry">
            <mxPoint x="900" y="648" as="sourcePoint" />
            <mxPoint x="1378" y="573" as="targetPoint" />
          </mxGeometry>
        </mxCell>
        <mxCell id="RxkFwqlUEFjrGWZGB2T0-35" value="[ok]" style="edgeLabel;html=1;align=center;verticalAlign=middle;resizable=0;points=[];" parent="RxkFwqlUEFjrGWZGB2T0-34" vertex="1" connectable="0">
          <mxGeometry x="-0.0186" y="1" relative="1" as="geometry">
            <mxPoint x="14" y="-9" as="offset" />
          </mxGeometry>
        </mxCell>
        <mxCell id="RxkFwqlUEFjrGWZGB2T0-37" value="" style="endArrow=classic;html=1;rounded=1;curved=0;exitX=1;exitY=0;exitDx=0;exitDy=0;entryX=0.5;entryY=1;entryDx=0;entryDy=0;" parent="1" source="RxkFwqlUEFjrGWZGB2T0-33" target="RxkFwqlUEFjrGWZGB2T0-13" edge="1">
          <mxGeometry width="50" height="50" relative="1" as="geometry">
            <mxPoint x="1075" y="752" as="sourcePoint" />
            <mxPoint x="1076" y="658" as="targetPoint" />
          </mxGeometry>
        </mxCell>
        <mxCell id="RxkFwqlUEFjrGWZGB2T0-38" value="[else]" style="edgeLabel;html=1;align=center;verticalAlign=middle;resizable=0;points=[];" parent="RxkFwqlUEFjrGWZGB2T0-37" vertex="1" connectable="0">
          <mxGeometry x="-0.1364" y="3" relative="1" as="geometry">
            <mxPoint x="-13" y="-14" as="offset" />
          </mxGeometry>
        </mxCell>
        <mxCell id="RxkFwqlUEFjrGWZGB2T0-41" value="Проверка был ли сгенерирован UUID" style="rounded=1;whiteSpace=wrap;html=1;fillColor=#fff2cc;strokeColor=#d6b656;" parent="1" vertex="1">
          <mxGeometry x="1170" y="716" width="120" height="60" as="geometry" />
        </mxCell>
        <mxCell id="RxkFwqlUEFjrGWZGB2T0-42" value="" style="endArrow=classic;html=1;rounded=1;curved=0;exitX=1;exitY=0.5;exitDx=0;exitDy=0;entryX=0;entryY=0.5;entryDx=0;entryDy=0;" parent="1" source="RxkFwqlUEFjrGWZGB2T0-33" target="RxkFwqlUEFjrGWZGB2T0-41" edge="1">
          <mxGeometry width="50" height="50" relative="1" as="geometry">
            <mxPoint x="970" y="726" as="sourcePoint" />
            <mxPoint x="1075" y="634" as="targetPoint" />
          </mxGeometry>
        </mxCell>
        <mxCell id="RxkFwqlUEFjrGWZGB2T0-43" value="[почта есть в системе]" style="edgeLabel;html=1;align=center;verticalAlign=middle;resizable=0;points=[];" parent="RxkFwqlUEFjrGWZGB2T0-42" vertex="1" connectable="0">
          <mxGeometry x="-0.1364" y="3" relative="1" as="geometry">
            <mxPoint x="14" y="-13" as="offset" />
          </mxGeometry>
        </mxCell>
        <mxCell id="RxkFwqlUEFjrGWZGB2T0-44" value="Генерация UUID" style="rounded=1;whiteSpace=wrap;html=1;fillColor=#fff2cc;strokeColor=#d6b656;" parent="1" vertex="1">
          <mxGeometry x="1170" y="589" width="120" height="60" as="geometry" />
        </mxCell>
        <mxCell id="RxkFwqlUEFjrGWZGB2T0-45" value="" style="endArrow=classic;html=1;rounded=1;entryX=0.5;entryY=1;entryDx=0;entryDy=0;curved=0;exitX=0;exitY=0;exitDx=0;exitDy=0;" parent="1" source="RxkFwqlUEFjrGWZGB2T0-41" target="RxkFwqlUEFjrGWZGB2T0-13" edge="1">
          <mxGeometry width="50" height="50" relative="1" as="geometry">
            <mxPoint x="970" y="628" as="sourcePoint" />
            <mxPoint x="1060" y="629" as="targetPoint" />
          </mxGeometry>
        </mxCell>
        <mxCell id="RxkFwqlUEFjrGWZGB2T0-46" value="[ошибка]" style="edgeLabel;html=1;align=center;verticalAlign=middle;resizable=0;points=[];" parent="RxkFwqlUEFjrGWZGB2T0-45" vertex="1" connectable="0">
          <mxGeometry x="-0.1364" y="3" relative="1" as="geometry">
            <mxPoint x="27" y="-7" as="offset" />
          </mxGeometry>
        </mxCell>
        <mxCell id="RxkFwqlUEFjrGWZGB2T0-47" value="Запись UUID в базу данных" style="rounded=1;whiteSpace=wrap;html=1;fillColor=#fff2cc;strokeColor=#d6b656;" parent="1" vertex="1">
          <mxGeometry x="1170" y="461" width="120" height="60" as="geometry" />
        </mxCell>
        <mxCell id="RxkFwqlUEFjrGWZGB2T0-48" value="" style="endArrow=classic;html=1;rounded=1;entryX=1;entryY=0.5;entryDx=0;entryDy=0;curved=0;exitX=0;exitY=0.5;exitDx=0;exitDy=0;" parent="1" source="RxkFwqlUEFjrGWZGB2T0-44" target="RxkFwqlUEFjrGWZGB2T0-13" edge="1">
          <mxGeometry width="50" height="50" relative="1" as="geometry">
            <mxPoint x="1180" y="726" as="sourcePoint" />
            <mxPoint x="1075" y="634" as="targetPoint" />
          </mxGeometry>
        </mxCell>
        <mxCell id="RxkFwqlUEFjrGWZGB2T0-49" value="[ошибка]" style="edgeLabel;html=1;align=center;verticalAlign=middle;resizable=0;points=[];" parent="RxkFwqlUEFjrGWZGB2T0-48" vertex="1" connectable="0">
          <mxGeometry x="-0.1364" y="3" relative="1" as="geometry">
            <mxPoint x="-1" y="-12" as="offset" />
          </mxGeometry>
        </mxCell>
        <mxCell id="RxkFwqlUEFjrGWZGB2T0-50" value="" style="endArrow=classic;html=1;rounded=1;entryX=1;entryY=0.5;entryDx=0;entryDy=0;curved=0;exitX=0;exitY=0.5;exitDx=0;exitDy=0;" parent="1" source="RxkFwqlUEFjrGWZGB2T0-47" target="RxkFwqlUEFjrGWZGB2T0-4" edge="1">
          <mxGeometry width="50" height="50" relative="1" as="geometry">
            <mxPoint x="1180" y="629" as="sourcePoint" />
            <mxPoint x="1090" y="629" as="targetPoint" />
          </mxGeometry>
        </mxCell>
        <mxCell id="RxkFwqlUEFjrGWZGB2T0-51" value="[ошибка]" style="edgeLabel;html=1;align=center;verticalAlign=middle;resizable=0;points=[];" parent="RxkFwqlUEFjrGWZGB2T0-50" vertex="1" connectable="0">
          <mxGeometry x="-0.1364" y="3" relative="1" as="geometry">
            <mxPoint y="-7" as="offset" />
          </mxGeometry>
        </mxCell>
        <mxCell id="RxkFwqlUEFjrGWZGB2T0-52" value="" style="shape=sumEllipse;perimeter=ellipsePerimeter;html=1;backgroundOutline=1;" parent="1" vertex="1">
          <mxGeometry x="1380" y="351.53" width="20" height="20" as="geometry" />
        </mxCell>
        <mxCell id="RxkFwqlUEFjrGWZGB2T0-53" value="" style="endArrow=classic;html=1;rounded=1;entryX=0;entryY=0.5;entryDx=0;entryDy=0;curved=0;exitX=1;exitY=0.5;exitDx=0;exitDy=0;" parent="1" source="RxkFwqlUEFjrGWZGB2T0-47" target="jCmLoT5sxYQSZjvSkq0s-1" edge="1">
          <mxGeometry width="50" height="50" relative="1" as="geometry">
            <mxPoint x="1077" y="496" as="sourcePoint" />
            <mxPoint x="1078" y="402" as="targetPoint" />
          </mxGeometry>
        </mxCell>
        <mxCell id="RxkFwqlUEFjrGWZGB2T0-54" value="[ok]" style="edgeLabel;html=1;align=center;verticalAlign=middle;resizable=0;points=[];" parent="RxkFwqlUEFjrGWZGB2T0-53" vertex="1" connectable="0">
          <mxGeometry x="0.0187" y="-2" relative="1" as="geometry">
            <mxPoint x="-1" y="-13" as="offset" />
          </mxGeometry>
        </mxCell>
        <mxCell id="RxkFwqlUEFjrGWZGB2T0-55" value="" style="endArrow=classic;html=1;rounded=1;entryX=0.5;entryY=1;entryDx=0;entryDy=0;curved=0;exitX=0.5;exitY=0;exitDx=0;exitDy=0;" parent="1" source="RxkFwqlUEFjrGWZGB2T0-44" target="RxkFwqlUEFjrGWZGB2T0-47" edge="1">
          <mxGeometry width="50" height="50" relative="1" as="geometry">
            <mxPoint x="1300" y="501" as="sourcePoint" />
            <mxPoint x="1373" y="622" as="targetPoint" />
          </mxGeometry>
        </mxCell>
        <mxCell id="RxkFwqlUEFjrGWZGB2T0-56" value="[ok]" style="edgeLabel;html=1;align=center;verticalAlign=middle;resizable=0;points=[];" parent="RxkFwqlUEFjrGWZGB2T0-55" vertex="1" connectable="0">
          <mxGeometry x="0.0187" y="-2" relative="1" as="geometry">
            <mxPoint x="9" y="-4" as="offset" />
          </mxGeometry>
        </mxCell>
        <mxCell id="RxkFwqlUEFjrGWZGB2T0-57" value="" style="endArrow=classic;html=1;rounded=1;entryX=0.5;entryY=1;entryDx=0;entryDy=0;curved=0;exitX=0.5;exitY=0;exitDx=0;exitDy=0;" parent="1" source="RxkFwqlUEFjrGWZGB2T0-41" target="RxkFwqlUEFjrGWZGB2T0-44" edge="1">
          <mxGeometry width="50" height="50" relative="1" as="geometry">
            <mxPoint x="1240" y="599" as="sourcePoint" />
            <mxPoint x="1240" y="531" as="targetPoint" />
          </mxGeometry>
        </mxCell>
        <mxCell id="RxkFwqlUEFjrGWZGB2T0-58" value="[не снегерирован]" style="edgeLabel;html=1;align=center;verticalAlign=middle;resizable=0;points=[];" parent="RxkFwqlUEFjrGWZGB2T0-57" vertex="1" connectable="0">
          <mxGeometry x="0.0187" y="-2" relative="1" as="geometry">
            <mxPoint x="48" y="-2" as="offset" />
          </mxGeometry>
        </mxCell>
        <mxCell id="RxkFwqlUEFjrGWZGB2T0-59" value="" style="endArrow=classic;html=1;rounded=1;entryX=0.5;entryY=1;entryDx=0;entryDy=0;curved=0;exitX=1;exitY=0.5;exitDx=0;exitDy=0;" parent="1" source="RxkFwqlUEFjrGWZGB2T0-41" target="jCmLoT5sxYQSZjvSkq0s-1" edge="1">
          <mxGeometry width="50" height="50" relative="1" as="geometry">
            <mxPoint x="1240" y="726" as="sourcePoint" />
            <mxPoint x="1240" y="659" as="targetPoint" />
            <Array as="points">
              <mxPoint x="1345" y="746" />
            </Array>
          </mxGeometry>
        </mxCell>
        <mxCell id="RxkFwqlUEFjrGWZGB2T0-60" value="[снегерирован]" style="edgeLabel;html=1;align=center;verticalAlign=middle;resizable=0;points=[];" parent="RxkFwqlUEFjrGWZGB2T0-59" vertex="1" connectable="0">
          <mxGeometry x="0.0187" y="-2" relative="1" as="geometry">
            <mxPoint x="-17" y="114" as="offset" />
          </mxGeometry>
        </mxCell>
        <mxCell id="jCmLoT5sxYQSZjvSkq0s-1" value="" style="rhombus;whiteSpace=wrap;html=1;" parent="1" vertex="1">
          <mxGeometry x="1330" y="486" width="30" height="10" as="geometry" />
        </mxCell>
        <mxCell id="NheAMHdRDetaeFfUJtNX-1" value="Отправка письма" style="rounded=1;whiteSpace=wrap;html=1;fillColor=#fff2cc;strokeColor=#d6b656;" vertex="1" parent="1">
          <mxGeometry x="1170" y="331.53" width="120" height="60" as="geometry" />
        </mxCell>
        <mxCell id="NheAMHdRDetaeFfUJtNX-2" value="" style="endArrow=classic;html=1;rounded=1;entryX=0;entryY=0.5;entryDx=0;entryDy=0;curved=0;exitX=1;exitY=0.5;exitDx=0;exitDy=0;" edge="1" parent="1" source="NheAMHdRDetaeFfUJtNX-1" target="RxkFwqlUEFjrGWZGB2T0-52">
          <mxGeometry width="50" height="50" relative="1" as="geometry">
            <mxPoint x="1240" y="599" as="sourcePoint" />
            <mxPoint x="1240" y="531" as="targetPoint" />
          </mxGeometry>
        </mxCell>
        <mxCell id="NheAMHdRDetaeFfUJtNX-3" value="[ok]" style="edgeLabel;html=1;align=center;verticalAlign=middle;resizable=0;points=[];" vertex="1" connectable="0" parent="NheAMHdRDetaeFfUJtNX-2">
          <mxGeometry x="0.0187" y="-2" relative="1" as="geometry">
            <mxPoint x="-6" y="-2" as="offset" />
          </mxGeometry>
        </mxCell>
        <mxCell id="NheAMHdRDetaeFfUJtNX-4" value="" style="endArrow=classic;html=1;rounded=1;entryX=1;entryY=0.5;entryDx=0;entryDy=0;curved=0;exitX=0.5;exitY=0;exitDx=0;exitDy=0;" edge="1" parent="1" source="NheAMHdRDetaeFfUJtNX-1" target="IgeLQids6hlCfI4V9-Eq-11">
          <mxGeometry width="50" height="50" relative="1" as="geometry">
            <mxPoint x="1180" y="501" as="sourcePoint" />
            <mxPoint x="1092" y="501" as="targetPoint" />
            <Array as="points">
              <mxPoint x="1230" y="307" />
            </Array>
          </mxGeometry>
        </mxCell>
        <mxCell id="NheAMHdRDetaeFfUJtNX-5" value="[ошибка]" style="edgeLabel;html=1;align=center;verticalAlign=middle;resizable=0;points=[];" vertex="1" connectable="0" parent="NheAMHdRDetaeFfUJtNX-4">
          <mxGeometry x="-0.1364" y="3" relative="1" as="geometry">
            <mxPoint x="-9" y="-13" as="offset" />
          </mxGeometry>
        </mxCell>
        <mxCell id="NheAMHdRDetaeFfUJtNX-6" value="" style="endArrow=classic;html=1;rounded=1;entryX=0.5;entryY=1;entryDx=0;entryDy=0;curved=0;exitX=0.5;exitY=0;exitDx=0;exitDy=0;" edge="1" parent="1" source="jCmLoT5sxYQSZjvSkq0s-1" target="NheAMHdRDetaeFfUJtNX-1">
          <mxGeometry width="50" height="50" relative="1" as="geometry">
            <mxPoint x="1077" y="496" as="sourcePoint" />
            <mxPoint x="1078" y="402" as="targetPoint" />
            <Array as="points">
              <mxPoint x="1345" y="430" />
              <mxPoint x="1230" y="430" />
            </Array>
          </mxGeometry>
        </mxCell>
      </root>
    </mxGraphModel>
  </diagram>
</mxfile>
